<svg width="32" height="32" viewBox="0 0 32 32" fill="none" xmlns="http://www.w3.org/2000/svg">
<rect width="32" height="32" fill="#1009F6"/>
<path d="M22.4018 25.2546H11.2701C9.57358 25.2546 7.94648 24.554 6.74688 23.307C5.54728 22.06 4.87347 20.3686 4.87347 18.605V10.66C4.87347 9.49196 5.31976 8.37175 6.1143 7.54579C6.90884 6.71983 7.98644 6.2558 9.11009 6.2558H17.5006C18.6242 6.2558 19.7018 6.71983 20.4964 7.54579C21.2909 8.37175 21.7372 9.49196 21.7372 10.66V11.1782H22.4018C23.5255 11.1782 24.6031 11.6422 25.3976 12.4682C26.1921 13.2941 26.6386 14.4144 26.6386 15.5825V20.8503C26.6386 21.4287 26.5291 22.0014 26.3162 22.5358C26.1032 23.0701 25.791 23.5556 25.3976 23.9646C25.0042 24.3736 24.5371 24.698 24.0231 24.9193C23.5091 25.1407 22.9582 25.2546 22.4018 25.2546V25.2546ZM9.11009 8.41475C8.53725 8.41475 7.98795 8.65127 7.58289 9.07235C7.17783 9.49342 6.95031 10.0645 6.95031 10.66V18.605C6.95031 19.796 7.40535 20.9382 8.21547 21.7803C9.02559 22.6225 10.1244 23.0956 11.2701 23.0956H22.4018C22.9747 23.0956 23.5242 22.8591 23.9292 22.438C24.3343 22.017 24.5618 21.4458 24.5618 20.8503V15.5825C24.5618 14.987 24.3343 14.4159 23.9292 13.9948C23.5242 13.5737 22.9747 13.3371 22.4018 13.3371H21.7372V17.3097C21.7372 17.6839 21.6663 18.0545 21.5285 18.4002C21.3907 18.746 21.1888 19.0601 20.9342 19.3247C20.6797 19.5894 20.3775 19.7993 20.0449 19.9425C19.7123 20.0857 19.3559 20.1594 18.9959 20.1594H12.5162C11.7891 20.1594 11.0918 19.8592 10.5777 19.3247C10.0635 18.7903 9.77472 18.0655 9.77472 17.3097V14.028C9.77472 13.2722 10.0635 12.5473 10.5777 12.0129C11.0918 11.4784 11.7891 11.1782 12.5162 11.1782H19.6604V10.66C19.6604 10.0645 19.4328 9.49342 19.0278 9.07235C18.6227 8.65127 18.0734 8.41475 17.5006 8.41475H9.11009ZM12.5162 13.3371C12.3399 13.3371 12.1709 13.41 12.0463 13.5395C11.9216 13.6691 11.8515 13.8448 11.8515 14.028V17.3097C11.8515 17.4929 11.9216 17.6686 12.0463 17.7982C12.1709 17.9277 12.3399 18.0005 12.5162 18.0005H18.9959C19.1722 18.0005 19.3412 17.9277 19.4659 17.7982C19.5905 17.6686 19.6604 17.4929 19.6604 17.3097V13.3371H12.5162Z" fill="white"/>
</svg>
